<svg xmlns="http://www.w3.org/2000/svg" width="20" height="20" fill="none"><g stroke="#fff" stroke-width="1.5" clip-path="url(#a)"><path d="m18.007 11.3.19-2.029c.15-1.594.226-2.39-.047-2.72a.827.827 0 0 0-.562-.306c-.397-.035-.895.532-1.89 1.665-.515.586-.773.88-1.06.925a.77.77 0 0 1-.468-.075c-.265-.133-.442-.496-.796-1.22L11.51 3.72c-.668-1.37-1.002-2.054-1.51-2.054-.51 0-.843.685-1.512 2.054L6.624 7.54c-.353.724-.53 1.087-.795 1.22a.77.77 0 0 1-.469.075c-.287-.045-.544-.339-1.06-.925-.995-1.133-1.493-1.7-1.889-1.665a.827.827 0 0 0-.563.306c-.272.33-.197 1.126-.047 2.72l.19 2.03c.316 3.344.473 5.015 1.458 6.024.986 1.008 2.463 1.008 5.417 1.008h2.267c2.954 0 4.43 0 5.416-1.008.986-1.009 1.143-2.68 1.458-6.024z"/><path stroke-linecap="round" d="M7.5 15h5"/></g><defs><clipPath id="a"><path fill="#fff" d="M0 0h20v20H0z"/></clipPath></defs></svg>