<svg xmlns="http://www.w3.org/2000/svg" width="21" height="20" fill="none"><path fill="#fff" d="M10.99 4.839a.625.625 0 0 1 .385.577v3.333a.625.625 0 1 1-1.25 0V6.925l-.183.183a.625.625 0 1 1-.884-.884l1.25-1.25a.625.625 0 0 1 .681-.135z"/><path fill="#fff" fill-rule="evenodd" d="M6.582 1.339a22.55 22.55 0 0 1 3.752-.298 22.6 22.6 0 0 1 3.75.298l.113.019c.842.14 1.542.258 2.089.931.35.433.464.9.49 1.421l.41.137c.386.129.724.241.992.366.29.135.556.309.76.591.203.282.284.59.32.907.034.294.034.65.034 1.058v.12c0 .335 0 .631-.025.879a1.853 1.853 0 0 1-.234.78 1.87 1.87 0 0 1-.569.584 9.425 9.425 0 0 1-.755.448l-2.2 1.222c-.45.885-1.068 1.673-1.917 2.243-.73.489-1.602.798-2.634.887v1.692h1.192c.695 0 1.294.491 1.43 1.173l.182.91h1.571a.625.625 0 1 1 0 1.25h-10a.625.625 0 1 1 0-1.25h1.571l.182-.91a1.458 1.458 0 0 1 1.43-1.173h1.192v-1.692c-1.031-.089-1.904-.398-2.633-.887-.849-.57-1.467-1.358-1.916-2.242L2.958 9.58a9.407 9.407 0 0 1-.755-.448 1.852 1.852 0 0 1-.569-.584 1.853 1.853 0 0 1-.234-.78c-.025-.248-.025-.544-.025-.878v-.121c0-.407 0-.764.034-1.058.036-.318.117-.625.32-.907.203-.282.469-.456.76-.59.268-.126.606-.238.992-.367l.41-.137c.026-.521.14-.988.49-1.42.547-.674 1.247-.792 2.089-.932l.112-.02zm1.597 16.369h4.309l-.133-.666a.208.208 0 0 0-.205-.168H8.517c-.1 0-.185.07-.205.168l-.133.666zM3.92 5.018c.06 1.268.202 2.668.558 3.976l-.888-.493a8.813 8.813 0 0 1-.674-.396c-.135-.094-.18-.15-.204-.19-.024-.042-.051-.108-.067-.272a8.816 8.816 0 0 1-.019-.781v-.06c0-.45 0-.734.025-.95.023-.198.06-.272.093-.317.033-.046.091-.104.272-.188.196-.092.466-.182.892-.325l.011-.003zm12.27 3.976.888-.493c.324-.18.528-.294.674-.396.136-.094.18-.15.204-.19.025-.042.052-.108.068-.272a8.8 8.8 0 0 0 .019-.781v-.06c0-.45-.001-.734-.026-.95-.022-.198-.06-.272-.092-.317-.033-.046-.091-.104-.273-.188-.196-.092-.465-.182-.892-.325l-.01-.003c-.06 1.267-.203 2.667-.56 3.975zM10.334 2.29c-1.45 0-2.64.128-3.544.28-1.006.17-1.217.233-1.439.506-.218.27-.239.524-.194 1.653.075 1.882.323 3.913 1.092 5.458.38.762.876 1.385 1.522 1.819.643.43 1.472.7 2.563.7 1.09 0 1.92-.27 2.562-.7.646-.434 1.142-1.056 1.522-1.819.769-1.545 1.017-3.576 1.092-5.458.045-1.13.024-1.384-.194-1.653-.222-.273-.433-.336-1.439-.506a21.355 21.355 0 0 0-3.543-.28z" clip-rule="evenodd"/></svg>