<svg xmlns="http://www.w3.org/2000/svg" width="21" height="20" fill="none"><path fill="#fff" d="M6.5 5a.833.833 0 1 1-1.666 0 .833.833 0 0 1 1.667 0zM9 5a.833.833 0 1 1-1.666 0 .833.833 0 0 1 1.667 0zm1.667.833a.833.833 0 1 0 0-1.667.833.833 0 0 0 0 1.667z"/><path fill="#fff" fill-rule="evenodd" d="M10.62 1.041c-1.924 0-3.432 0-4.608.158-1.204.162-2.154.5-2.9 1.245-.745.746-1.083 1.696-1.245 2.9-.094.697-.132 1.51-.147 2.456a.629.629 0 0 0-.003.214c-.008.593-.008 1.238-.008 1.938v.095c0 1.924 0 3.431.158 4.608.162 1.204.5 2.154 1.245 2.9.746.745 1.696 1.083 2.9 1.245 1.176.158 2.684.158 4.608.158h.095c1.924 0 3.431 0 4.608-.158 1.203-.162 2.154-.5 2.9-1.246.745-.745 1.083-1.695 1.245-2.9.158-1.176.158-2.683.158-4.607v-.095c0-.7 0-1.345-.008-1.938a.63.63 0 0 0-.003-.214c-.016-.946-.054-1.76-.147-2.456-.162-1.204-.5-2.154-1.246-2.9-.745-.745-1.696-1.083-2.9-1.245-1.176-.158-2.683-.158-4.607-.158h-.095zM2.959 9.999c0-.523 0-1.008.003-1.458h4.58v8.958c0 .06.009.118.024.173a15.474 15.474 0 0 1-1.387-.111c-1.066-.143-1.708-.416-2.183-.89-.474-.475-.747-1.118-.89-2.183-.146-1.083-.147-2.507-.147-4.489zm5.8 7.702c.572.006 1.205.007 1.908.007 1.982 0 3.406-.002 4.489-.147 1.065-.143 1.708-.416 2.182-.89.475-.475.747-1.118.89-2.183.146-1.083.148-2.507.148-4.489 0-.523 0-1.008-.003-1.458h-9.58v8.958c0 .07-.012.139-.034.202zM3.106 5.51a17.29 17.29 0 0 0-.125 1.78h15.372c-.02-.684-.056-1.27-.124-1.78-.144-1.066-.416-1.708-.89-2.183-.475-.474-1.118-.747-2.183-.89-1.083-.146-2.507-.147-4.489-.147-1.982 0-3.405.001-4.488.147-1.066.143-1.708.416-2.183.89-.474.475-.747 1.117-.89 2.183z" clip-rule="evenodd"/></svg>