<svg xmlns="http://www.w3.org/2000/svg" width="20" height="20" fill="none"><path fill="#fff" fill-rule="evenodd" d="M4.567 1.586a.417.417 0 0 0-.818.003v.001l-.002.008a2.96 2.96 0 0 1-.038.168 5.89 5.89 0 0 1-.127.443c-.12.362-.285.717-.474.906-.188.19-.542.357-.903.48a5.715 5.715 0 0 1-.61.17l-.008.001h-.001a.417.417 0 0 0 .003.818h.001l.008.002a2.91 2.91 0 0 1 .168.038c.114.028.271.07.443.128.362.12.717.284.906.473.19.189.357.542.48.903a5.716 5.716 0 0 1 .17.61l.001.008v.001a.417.417 0 0 0 .818-.002v-.002l.002-.008a2.868 2.868 0 0 1 .038-.168c.028-.114.07-.271.128-.443.12-.361.284-.716.473-.906.189-.19.542-.357.903-.48a5.716 5.716 0 0 1 .61-.17h.008l.001-.001a.417.417 0 0 0-.002-.818h-.002l-.008-.002a2.916 2.916 0 0 1-.168-.038 5.712 5.712 0 0 1-.443-.127c-.361-.12-.716-.285-.906-.474-.19-.188-.357-.542-.48-.903a5.715 5.715 0 0 1-.17-.61v-.008l-.001-.001zm.763 2.577a2.515 2.515 0 0 1-.7-.463 2.515 2.515 0 0 1-.467-.697 2.53 2.53 0 0 1-.463.7 2.515 2.515 0 0 1-.697.468c.253.118.506.27.7.463.193.192.347.445.468.696a2.5 2.5 0 0 1 .463-.7c.192-.193.445-.347.696-.467zm10.503-1.455c.345 0 .625.28.625.625v.209h.209a.625.625 0 0 1 0 1.25h-.209V5a.625.625 0 1 1-1.25 0v-.208H15a.625.625 0 1 1 0-1.25h.208v-.209c0-.345.28-.625.625-.625zM9.99 5.15c-.274.358-.585.912-1.044 1.735l-.232.417-.045.08c-.209.377-.398.718-.704.95-.31.235-.687.32-1.095.411l-.087.02-.45.102c-.893.202-1.49.338-1.895.498-.394.156-.447.271-.467.336-.022.07-.04.21.196.585.24.382.65.862 1.256 1.573l.308.359.057.067c.28.327.532.62.647.99.114.368.076.753.033 1.19l-.009.09-.046.48c-.092.946-.152 1.588-.132 2.047.02.46.117.552.161.586.034.026.126.093.536-.025.419-.12.979-.375 1.814-.76l.422-.194.083-.039c.38-.175.733-.339 1.12-.339.386 0 .74.164 1.12.34l.082.038.422.194c.836.385 1.396.64 1.814.76.41.118.502.05.536.025.045-.034.14-.127.161-.586.02-.46-.04-1.101-.132-2.048l-.046-.48-.009-.088c-.043-.438-.08-.823.034-1.191.115-.37.366-.663.646-.99l.058-.067.307-.36c.607-.71 1.015-1.19 1.256-1.572.237-.376.219-.514.197-.585-.02-.065-.073-.18-.468-.336-.405-.16-1.002-.296-1.894-.498l-.451-.102-.087-.02c-.408-.091-.785-.176-1.094-.41-.306-.233-.496-.574-.705-.951l-.045-.08-.232-.417c-.459-.823-.77-1.377-1.043-1.735-.274-.357-.392-.358-.427-.358-.036 0-.154.001-.427.358zm-.993-.76c.343-.447.785-.848 1.42-.848.635 0 1.076.4 1.42.848.335.439.69 1.075 1.117 1.842l.257.461c.282.506.344.59.413.643.066.05.153.083.702.208l.502.113c.827.187 1.52.344 2.026.543.529.209 1.015.525 1.202 1.127.185.596-.026 1.138-.332 1.623-.295.47-.765 1.019-1.331 1.68l-.34.398c-.372.435-.432.523-.46.616-.03.096-.03.21.025.788l.051.53c.086.883.157 1.615.132 2.174-.025.57-.156 1.147-.654 1.525-.508.386-1.095.337-1.636.182-.522-.15-1.17-.448-1.944-.804l-.47-.217c-.517-.237-.604-.263-.68-.263-.077 0-.164.026-.68.263l-.47.217c-.775.356-1.422.654-1.944.804-.541.155-1.128.204-1.637-.182-.498-.378-.628-.954-.654-1.525-.025-.56.046-1.29.132-2.175l.051-.529c.056-.579.056-.692.026-.788-.029-.093-.089-.181-.46-.616l-.34-.398c-.566-.661-1.036-1.21-1.332-1.68-.305-.485-.517-1.027-.332-1.623.187-.602.674-.918 1.203-1.127.506-.2 1.198-.356 2.025-.543l.502-.113c.55-.125.636-.157.702-.208.07-.053.131-.137.413-.643l.257-.461c.428-.767.782-1.403 1.118-1.842z" clip-rule="evenodd"/></svg>